<?xml version="1.0" standalone="no"?>
<!DOCTYPE svg PUBLIC "-//W3C//DTD SVG 20010904//EN"
 "http://www.w3.org/TR/2001/REC-SVG-20010904/DTD/svg10.dtd">
<svg version="1.0" xmlns="http://www.w3.org/2000/svg"
 width="512.000000pt" height="512.000000pt" viewBox="0 0 512.000000 512.000000"
 preserveAspectRatio="xMidYMid meet">
<metadata>
Created by potrace 1.11, written by Peter Selinger 2001-2013
</metadata>
<g transform="translate(0.000000,512.000000) scale(0.100000,-0.100000)"
fill="#000000" stroke="none">
<path d="M1444 4838 c-60 -16 -101 -82 -95 -153 3 -34 41 -89 74 -107 17 -9
277 -12 1057 -13 569 -1 1055 -5 1079 -10 24 -4 58 -13 76 -21 18 -7 35 -10
39 -7 3 4 6 1 6 -5 0 -7 6 -12 13 -12 25 0 112 -63 174 -127 54 -55 131 -181
139 -227 1 -6 7 -31 13 -56 7 -31 10 -510 11 -1503 0 -1217 2 -1463 14 -1491
43 -104 199 -107 252 -5 15 30 24 192 12 205 -4 3 -3 17 2 30 7 17 6 24 -3 24
-7 0 -8 3 -2 8 6 4 10 25 10 47 0 22 -4 43 -10 47 -7 5 -7 8 0 8 6 0 10 53 10
140 0 77 -3 140 -7 140 -4 0 -5 7 -1 15 8 24 9 276 0 282 -4 2 -5 9 -1 14 8
14 9 197 1 205 -3 3 -2 17 3 30 7 17 6 24 -3 24 -7 0 -8 3 -2 8 6 4 10 25 10
47 0 22 -4 43 -10 47 -7 5 -7 8 0 8 10 0 12 146 2 156 -3 3 -2 17 3 30 7 17 6
24 -3 24 -7 0 -8 3 -2 8 6 4 10 25 10 47 0 22 -4 43 -10 47 -7 5 -7 8 0 8 6 0
10 53 10 140 0 77 -3 140 -7 140 -4 0 -5 7 -1 15 8 24 9 276 0 282 -4 2 -5 9
-1 14 8 14 9 197 1 205 -3 3 -2 17 3 30 7 17 6 24 -3 24 -7 0 -8 3 -2 8 6 4
10 25 10 47 0 22 -4 43 -10 47 -7 5 -7 8 0 8 10 0 12 146 2 156 -3 3 -2 17 3
29 6 16 5 25 -3 29 -7 2 -7 5 -2 5 13 1 10 94 -6 191 -48 305 -266 569 -557
673 -142 52 -117 51 -1229 51 -574 1 -1055 -2 -1069 -6z"/>
<path d="M1090 4327 c-137 -38 -253 -153 -299 -296 -17 -52 -15 -3234 2 -3281
46 -131 139 -225 271 -275 l63 -24 1174 2 1174 2 68 29 c37 15 67 32 67 37 0
5 6 9 12 9 20 0 128 120 128 141 0 10 4 19 8 19 10 0 37 77 35 98 0 6 2 12 6
12 3 0 7 27 7 60 1 42 -2 58 -10 53 -8 -5 -8 -3 0 8 15 19 15 241 0 232 -8 -5
-8 -3 0 8 16 20 16 241 1 232 -9 -5 -9 -3 -1 8 15 19 15 241 0 232 -8 -5 -8
-3 0 8 16 20 16 241 1 232 -9 -5 -9 -3 -1 8 15 19 15 241 0 232 -8 -5 -8 -3 0
8 16 20 16 241 1 232 -9 -5 -9 -3 -1 8 16 20 16 401 0 392 -8 -5 -8 -3 0 8 16
20 16 241 1 232 -9 -5 -9 -3 -1 8 15 19 15 241 0 232 -8 -5 -8 -3 0 8 16 20
16 241 1 232 -9 -5 -9 -3 -1 8 15 19 15 241 0 232 -7 -5 -7 -2 1 8 12 15 11
239 -1 294 -13 56 -67 150 -114 198 -28 29 -77 63 -121 85 l-75 37 -1175 2
c-902 1 -1186 -1 -1221 -10z m2345 -277 c8 -7 15 -10 15 -6 0 14 43 -32 59
-64 17 -33 18 -122 17 -1592 -1 -1556 -1 -1557 -22 -1584 -11 -15 -33 -37 -48
-48 -27 -21 -34 -21 -1144 -24 -765 -2 -1128 0 -1152 8 -47 14 -83 48 -96 90
-15 50 -12 3105 3 3140 21 49 67 81 125 88 29 4 542 6 1140 6 856 -1 1091 -4
1103 -14z"/>
<path d="M1426 3469 c-70 -11 -101 -69 -71 -133 12 -24 27 -38 48 -45 20 -6
370 -9 903 -8 928 2 883 0 921 47 22 27 15 77 -15 111 l-29 32 -860 1 c-473 1
-876 -2 -897 -5z"/>
<path d="M1393 3068 c-12 -6 -29 -26 -39 -46 -13 -29 -14 -42 -5 -72 17 -59
39 -63 295 -63 121 0 226 2 231 3 6 1 15 1 20 0 14 -3 608 -3 620 0 6 1 12 2
15 0 3 -1 148 -2 322 -2 282 -1 320 1 343 16 58 38 59 120 2 155 -31 19 -52
19 -907 19 -572 0 -883 -4 -897 -10z"/>
<path d="M1429 2679 c-45 -7 -56 -14 -75 -51 -13 -26 -14 -38 -5 -70 21 -70
-31 -66 936 -67 599 0 879 4 898 11 31 12 57 54 57 93 0 41 -50 85 -97 86
-218 4 -1688 3 -1714 -2z"/>
<path d="M1389 2285 c-54 -29 -61 -104 -15 -150 l24 -24 891 0 891 1 30 30
c38 38 40 85 6 125 l-24 28 -889 2 c-754 2 -892 0 -914 -12z"/>
<path d="M1395 1890 c-61 -31 -69 -123 -13 -160 29 -19 392 -25 381 -6 -5 8
-3 8 8 0 17 -14 50 -15 67 -1 7 5 12 6 12 0 0 -6 174 -9 440 -9 311 -1 437 3
433 10 -5 7 -2 7 8 0 17 -14 50 -15 67 -1 7 5 12 6 12 0 0 -5 69 -9 165 -10
106 0 162 4 158 10 -4 6 -1 7 8 1 41 -25 99 27 99 90 0 14 -13 40 -29 58 l-29
33 -878 0 c-764 0 -883 -2 -909 -15z"/>
<path d="M1388 1494 c-34 -18 -54 -77 -39 -116 18 -49 49 -60 168 -60 59 0
113 1 118 2 6 1 15 1 20 0 27 -5 246 -1 256 6 7 4 10 3 6 -2 -4 -8 166 -11
198 -4 6 1 15 1 20 0 27 -5 246 -1 256 6 7 4 10 3 6 -2 -3 -5 157 -8 390 -7
l396 2 29 31 c39 43 38 88 -3 129 l-31 31 -881 0 c-757 -1 -886 -3 -909 -16z"/>
</g>
</svg>
